<svg width="17" height="17" viewBox="0 0 17 17" fill="none" xmlns="http://www.w3.org/2000/svg">
<path fill-rule="evenodd" clip-rule="evenodd" d="M3.89592 7.08203C3.89592 6.66344 3.97837 6.24895 4.13856 5.86223C4.29874 5.4755 4.53353 5.12412 4.82952 4.82813C5.12551 4.53214 5.4769 4.29735 5.86362 4.13717C6.25035 3.97698 6.66484 3.89453 7.08342 3.89453C7.50201 3.89453 7.9165 3.97698 8.30323 4.13717C8.68995 4.29735 9.04134 4.53214 9.33733 4.82813C9.63331 5.12412 9.8681 5.4755 10.0283 5.86223C10.1885 6.24895 10.2709 6.66344 10.2709 7.08203C10.2709 7.92741 9.9351 8.73816 9.33733 9.33593C8.73955 9.93371 7.9288 10.2695 7.08342 10.2695C6.23805 10.2695 5.42729 9.93371 4.82952 9.33593C4.23175 8.73816 3.89592 7.92741 3.89592 7.08203ZM7.08342 1.76953C6.25503 1.76962 5.43813 1.96343 4.69798 2.33549C3.95784 2.70755 3.31496 3.24754 2.8207 3.91233C2.32643 4.57712 1.99448 5.34828 1.85137 6.16422C1.70825 6.98016 1.75793 7.81827 1.99644 8.61159C2.23495 9.40491 2.65568 10.1315 3.22502 10.7332C3.79435 11.3349 4.49653 11.7952 5.27544 12.0772C6.05436 12.3592 6.88843 12.4552 7.71104 12.3574C8.53365 12.2596 9.32199 11.9708 10.0131 11.5141L13.4152 14.9169C13.6145 15.1162 13.8849 15.2282 14.1668 15.2282C14.4486 15.2282 14.719 15.1162 14.9183 14.9169C15.1176 14.7176 15.2296 14.4472 15.2296 14.1654C15.2296 13.8835 15.1176 13.6131 14.9183 13.4138L11.5155 10.0117C12.0448 9.211 12.3473 8.28186 12.3908 7.323C12.4344 6.36415 12.2173 5.41141 11.7627 4.56604C11.3082 3.72067 10.633 3.01424 9.80911 2.52184C8.9852 2.02944 8.04327 1.76946 7.08342 1.76953Z" fill="#707070"/>
</svg>
