<svg width="113" height="5" viewBox="0 0 113 5" fill="none" xmlns="http://www.w3.org/2000/svg">
<path d="M56.528 4H56.5059C54.2017 4 50.7385 3.41881 47.3909 2.86174C44.0433 2.30466 40.6226 1.73312 38.3506 1.72829H38.32C35.9597 1.72829 32.3997 2.30466 28.9535 2.86415C25.5073 3.42363 21.932 4 19.5513 4H19.536C14.9105 4 1.13934 1.75 1 1.72588L1.05948 1.00241C1.19712 1.02653 14.9411 3.26688 19.536 3.2717H19.5513C21.9031 3.2717 25.458 2.69534 28.8974 2.13826C32.3368 1.58119 35.9325 1 38.3217 1H38.3523C40.6549 1 44.1095 1.58119 47.4521 2.13826C50.7946 2.69534 54.2323 3.26688 56.5076 3.2717H56.5297C58.8663 3.2717 62.3974 2.69534 65.8113 2.13826C69.2252 1.58119 72.7784 1 75.1286 1C77.4736 1 80.9997 1.57878 84.4084 2.13826C87.8172 2.69775 91.3263 3.2717 93.6509 3.2717C98.2017 3.2717 111.805 1.02653 111.941 1.00241L112 1.72588C111.862 1.75 98.2356 3.99759 93.6475 4C91.294 4 87.7629 3.42122 84.3456 2.86174C80.9283 2.30225 77.4413 1.7307 75.1252 1.72829C72.7988 1.72829 69.2745 2.30466 65.8657 2.86174C62.4569 3.41881 58.8952 4 56.528 4Z" fill="#BC6B93" stroke="#BC6B93" stroke-width="0.1"/>
</svg>
